<svg viewBox="0 0 96 96" xmlns="http://www.w3.org/2000/svg" xmlns:xlink="http://www.w3.org/1999/xlink" id="Icons_Walk" overflow="hidden"><g><circle cx="53" cy="13" r="8" stroke-width="0.999933" fill="#EBEBEB"/><path d="M73.3 44.2 63 40.8C63 40.8 57.3 27.6 57.1 27.2 55.7 24.7 53.1 23 50.1 23 48.9 23 47.7 23.3 46.7 23.8L32.7 29.3C31.7 29.7 30.9 30.5 30.5 31.5L25.5 43.5C24.7 45.5 25.6 47.9 27.7 48.7 28.2 48.9 28.7 49 29.2 49 30.8 49 32.3 48.1 32.9 46.5L37 36.1 41.2 34.5 34.3 68.2 20.9 84.5C19.5 86.2 19.7 88.7 21.4 90.1 22.1 90.7 23 91 23.9 91 25.1 91 26.2 90.5 27 89.5L41 72.5C41.4 72 41.7 71.4 41.8 70.8L44.2 59.2 55 67 55 87C55 89.2 56.8 91 59 91 61.2 91 63 89.2 63 87L63 65C63 63.7 62.4 62.5 61.4 61.8L51.7 54.7 54.4 41.2 56.3 45.6C56.8 46.6 57.6 47.4 58.7 47.8L70.7 51.8C71.1 51.9 71.5 52 72 52 73.7 52 75.2 50.9 75.8 49.3 76.5 47.2 75.4 44.9 73.3 44.2Z" stroke-width="0.999933" fill="#EBEBEB"/></g></svg>